<?xml version="1.0" encoding="UTF-8"?>
<svg xmlns="http://www.w3.org/2000/svg" xmlns:xlink="http://www.w3.org/1999/xlink" width="48pt" height="48pt" viewBox="0 0 48 48" version="1.1">
<defs>
<linearGradient id="linear0" gradientUnits="userSpaceOnUse" x1="103.91667" y1="93.16667" x2="151.00883" y2="93.16667" gradientTransform="matrix(0.27907,0,0,0.27907,0,0)">
<stop offset="0" style="stop-color:rgb(43.921569%,43.921569%,43.921569%);stop-opacity:1;"/>
<stop offset="0.364" style="stop-color:rgb(34.901961%,39.607843%,43.137255%);stop-opacity:1;"/>
<stop offset="1" style="stop-color:rgb(20.392157%,16.862745%,16.862745%);stop-opacity:1;"/>
</linearGradient>
<linearGradient id="linear1" gradientUnits="userSpaceOnUse" x1="107.5" y1="26.875" x2="146.91667" y2="26.875" gradientTransform="matrix(0.27907,0,0,0.27907,0,0)">
<stop offset="0" style="stop-color:rgb(16.470588%,64.313725%,95.686275%);stop-opacity:1;"/>
<stop offset="1" style="stop-color:rgb(100%,47.058824%,21.568627%);stop-opacity:1;"/>
</linearGradient>
<linearGradient id="linear2" gradientUnits="userSpaceOnUse" x1="25.08333" y1="26.875" x2="64.5" y2="26.875" gradientTransform="matrix(0.27907,0,0,0.27907,0,0)">
<stop offset="0" style="stop-color:rgb(16.470588%,64.313725%,95.686275%);stop-opacity:1;"/>
<stop offset="1" style="stop-color:rgb(100%,47.058824%,21.568627%);stop-opacity:1;"/>
</linearGradient>
<linearGradient id="linear3" gradientUnits="userSpaceOnUse" x1="21.5" y1="93.16667" x2="68.59217" y2="93.16667" gradientTransform="matrix(0.27907,0,0,0.27907,0,0)">
<stop offset="0" style="stop-color:rgb(43.921569%,43.921569%,43.921569%);stop-opacity:1;"/>
<stop offset="0.364" style="stop-color:rgb(34.901961%,39.607843%,43.137255%);stop-opacity:1;"/>
<stop offset="1" style="stop-color:rgb(20.392157%,16.862745%,16.862745%);stop-opacity:1;"/>
</linearGradient>
<linearGradient id="linear4" gradientUnits="userSpaceOnUse" x1="40.42" y1="89.58333" x2="133.042" y2="89.58333" gradientTransform="matrix(0.27907,0,0,0.27907,0,0)">
<stop offset="0" style="stop-color:rgb(51.764706%,55.294118%,58.039216%);stop-opacity:1;"/>
<stop offset="0.499" style="stop-color:rgb(59.215686%,64.313725%,67.45098%);stop-opacity:1;"/>
<stop offset="1" style="stop-color:rgb(32.54902%,32.54902%,32.54902%);stop-opacity:1;"/>
</linearGradient>
<filter id="alpha" filterUnits="objectBoundingBox" x="0%" y="0%" width="100%" height="100%">
  <feColorMatrix type="matrix" in="SourceGraphic" values="0 0 0 0 1 0 0 0 0 1 0 0 0 0 1 0 0 0 1 0"/>
</filter>
<mask id="mask0">
  <g filter="url(#alpha)">
<rect x="0" y="0" width="48" height="48" style="fill:rgb(0%,0%,0%);fill-opacity:0.14902;stroke:none;"/>
  </g>
</mask>
<clipPath id="clip1">
  <rect width="48" height="48"/>
</clipPath>
<g id="surface11569457" clip-path="url(#clip1)">
<path style=" stroke:none;fill-rule:nonzero;fill:rgb(0%,0%,0%);fill-opacity:1;" d="M 37 32 L 29 32 L 29 34 Z M 37 32 "/>
</g>
<mask id="mask1">
  <g filter="url(#alpha)">
<rect x="0" y="0" width="48" height="48" style="fill:rgb(0%,0%,0%);fill-opacity:0.14902;stroke:none;"/>
  </g>
</mask>
<clipPath id="clip2">
  <rect width="48" height="48"/>
</clipPath>
<g id="surface11569460" clip-path="url(#clip2)">
<path style=" stroke:none;fill-rule:nonzero;fill:rgb(0%,0%,0%);fill-opacity:1;" d="M 11 32 L 19 32 L 19 34 Z M 11 32 "/>
</g>
<linearGradient id="linear5" gradientUnits="userSpaceOnUse" x1="75.25" y1="59.125" x2="96.75" y2="59.125" gradientTransform="matrix(0.27907,0,0,0.27907,0,0)">
<stop offset="0" style="stop-color:rgb(16.470588%,64.313725%,95.686275%);stop-opacity:1;"/>
<stop offset="1" style="stop-color:rgb(100%,47.058824%,21.568627%);stop-opacity:1;"/>
</linearGradient>
<linearGradient id="linear6" gradientUnits="userSpaceOnUse" x1="79.15225" y1="118.25" x2="93.2885" y2="118.25" gradientTransform="matrix(0.27907,0,0,0.27907,0,0)">
<stop offset="0" style="stop-color:rgb(53.333333%,56.470588%,59.215686%);stop-opacity:1;"/>
<stop offset="0.331" style="stop-color:rgb(51.764706%,54.901961%,58.039216%);stop-opacity:1;"/>
<stop offset="0.669" style="stop-color:rgb(47.058824%,50.980392%,54.509804%);stop-opacity:1;"/>
<stop offset="1" style="stop-color:rgb(20.392157%,16.862745%,16.862745%);stop-opacity:1;"/>
</linearGradient>
</defs>
<g id="surface11569452">
<path style=" stroke:none;fill-rule:nonzero;fill:url(#linear0);" d="M 40 9 L 31 9 C 29.894531 9 29 9.894531 29 11 L 29 41 C 29 42.105469 29.894531 43 31 43 L 40 43 C 41.105469 43 42 42.105469 42 41 L 42 11 C 42 9.894531 41.105469 9 40 9 Z M 40 9 "/>
<path style=" stroke:none;fill-rule:nonzero;fill:url(#linear1);" d="M 40 5 L 31 5 C 30.449219 5 30 5.449219 30 6 L 30 10 L 41 10 L 41 6 C 41 5.449219 40.550781 5 40 5 Z M 40 5 "/>
<path style=" stroke:none;fill-rule:nonzero;fill:url(#linear2);" d="M 17 5 L 8 5 C 7.449219 5 7 5.449219 7 6 L 7 10 L 18 10 L 18 6 C 18 5.449219 17.550781 5 17 5 Z M 17 5 "/>
<path style=" stroke:none;fill-rule:nonzero;fill:url(#linear3);" d="M 17 43 L 8 43 C 6.894531 43 6 42.105469 6 41 L 6 11 C 6 9.894531 6.894531 9 8 9 L 17 9 C 18.105469 9 19 9.894531 19 11 L 19 41 C 19 42.105469 18.105469 43 17 43 Z M 17 43 "/>
<path style=" stroke:none;fill-rule:nonzero;fill:url(#linear4);" d="M 24 18 L 11 18 L 11 32 L 37 32 L 37 18 Z M 24 18 "/>
<use xlink:href="#surface11569457" mask="url(#mask0)"/>
<use xlink:href="#surface11569460" mask="url(#mask1)"/>
<path style=" stroke:none;fill-rule:nonzero;fill:url(#linear5);" d="M 26 15 L 22 15 C 21.449219 15 21 15.449219 21 16 L 21 18 L 27 18 L 27 16 C 27 15.449219 26.550781 15 26 15 Z M 26 15 "/>
<path style=" stroke:none;fill-rule:nonzero;fill:url(#linear6);" d="M 26 32 L 22 32 L 22 33 C 22 33.550781 22.449219 34 23 34 L 25 34 C 25.550781 34 26 33.550781 26 33 Z M 26 32 "/>
<path style=" stroke:none;fill-rule:nonzero;fill:rgb(36.470588%,41.176471%,45.098039%);fill-opacity:1;" d="M 39.398438 19.714844 C 38.847656 19.714844 38.398438 20.164062 38.398438 20.714844 L 38.398438 28.714844 C 38.398438 29.269531 38.847656 29.714844 39.398438 29.714844 C 39.953125 29.714844 40.398438 29.269531 40.398438 28.714844 L 40.398438 20.714844 C 40.398438 20.164062 39.953125 19.714844 39.398438 19.714844 Z M 39.398438 19.714844 "/>
<path style=" stroke:none;fill-rule:nonzero;fill:rgb(20.392157%,16.862745%,16.862745%);fill-opacity:1;" d="M 35.398438 19.714844 C 34.847656 19.714844 34.398438 20.164062 34.398438 20.714844 L 34.398438 28.714844 C 34.398438 29.269531 34.847656 29.714844 35.398438 29.714844 C 35.953125 29.714844 36.398438 29.269531 36.398438 28.714844 L 36.398438 20.714844 C 36.398438 20.164062 35.953125 19.714844 35.398438 19.714844 Z M 35.398438 19.714844 "/>
<path style=" stroke:none;fill-rule:nonzero;fill:rgb(20.392157%,16.862745%,16.862745%);fill-opacity:1;" d="M 31.398438 19.714844 C 30.847656 19.714844 30.398438 20.164062 30.398438 20.714844 L 30.398438 28.714844 C 30.398438 29.269531 30.847656 29.714844 31.398438 29.714844 C 31.953125 29.714844 32.398438 29.269531 32.398438 28.714844 L 32.398438 20.714844 C 32.398438 20.164062 31.953125 19.714844 31.398438 19.714844 Z M 31.398438 19.714844 "/>
<path style=" stroke:none;fill-rule:nonzero;fill:rgb(20.392157%,16.862745%,16.862745%);fill-opacity:1;" d="M 16.398438 19.714844 C 15.847656 19.714844 15.398438 20.164062 15.398438 20.714844 L 15.398438 28.714844 C 15.398438 29.269531 15.847656 29.714844 16.398438 29.714844 C 16.953125 29.714844 17.398438 29.269531 17.398438 28.714844 L 17.398438 20.714844 C 17.398438 20.164062 16.953125 19.714844 16.398438 19.714844 Z M 16.398438 19.714844 "/>
<path style=" stroke:none;fill-rule:nonzero;fill:rgb(20.392157%,16.862745%,16.862745%);fill-opacity:1;" d="M 12.398438 19.714844 C 11.847656 19.714844 11.398438 20.164062 11.398438 20.714844 L 11.398438 28.714844 C 11.398438 29.269531 11.847656 29.714844 12.398438 29.714844 C 12.953125 29.714844 13.398438 29.269531 13.398438 28.714844 L 13.398438 20.714844 C 13.398438 20.164062 12.953125 19.714844 12.398438 19.714844 Z M 12.398438 19.714844 "/>
<path style=" stroke:none;fill-rule:nonzero;fill:rgb(43.529412%,48.627451%,54.117647%);fill-opacity:1;" d="M 8.398438 19.714844 C 7.847656 19.714844 7.398438 20.164062 7.398438 20.714844 L 7.398438 28.714844 C 7.398438 29.269531 7.847656 29.714844 8.398438 29.714844 C 8.953125 29.714844 9.398438 29.269531 9.398438 28.714844 L 9.398438 20.714844 C 9.398438 20.164062 8.953125 19.714844 8.398438 19.714844 Z M 8.398438 19.714844 "/>
</g>
</svg>
